<?xml version="1.0" encoding="UTF-8" standalone="no"?>
<!DOCTYPE svg PUBLIC "-//W3C//DTD SVG 1.1//EN" "http://www.w3.org/Graphics/SVG/1.1/DTD/svg11.dtd">
<svg version="1.1" xmlns="http://www.w3.org/2000/svg" xmlns:xlink="http://www.w3.org/1999/xlink" preserveAspectRatio="xMidYMid meet" viewBox="0 0 640 640" width="1080" height="1080"><defs><path d="M310.1 146.22C310.1 146.22 310.1 146.22 310.1 146.22C502.87 205.08 609.97 237.78 631.39 244.32C631.39 244.32 631.39 244.32 631.39 244.32C600.63 361.74 583.55 426.97 580.13 440.01C580.13 440.01 580.13 440.01 580.13 440.01C387.36 381.15 280.26 348.45 258.84 341.91C258.84 341.91 258.84 341.91 258.84 341.91C289.6 224.5 306.68 159.27 310.1 146.22Z" id="a1ky1EpMps"></path><path d="M315.65 151.53C314.18 151.53 312.99 152.82 312.99 154.4C312.99 155.99 314.18 157.28 315.65 157.28C317.12 157.28 318.31 155.99 318.31 154.4C318.31 152.82 317.12 151.53 315.65 151.53Z" id="b3akRLb9Zb"></path><path d="M323.84 154.03C322.37 154.03 321.18 155.32 321.18 156.91C321.18 158.49 322.37 159.78 323.84 159.78C325.31 159.78 326.5 158.49 326.5 156.91C326.5 155.32 325.31 154.03 323.84 154.03Z" id="a2CnSksWYI"></path><path d="M332.03 156.54C330.56 156.54 329.37 157.82 329.37 159.41C329.37 161 330.56 162.28 332.03 162.28C333.5 162.28 334.69 161 334.69 159.41C334.69 157.82 333.5 156.54 332.03 156.54Z" id="c21CWJOtVY"></path><path d="M467.63 270.72C468.86 266.13 469.18 261.3 468.54 256.56C464.16 258.27 460.19 261.04 456.94 264.65C455.92 259.73 453.88 255.13 450.97 251.2C448.13 254.87 446.06 259.16 444.88 263.78C441.79 260.44 438.07 257.84 433.98 256.16C433.98 256.16 432.05 266.8 436.71 275.53C440.86 283.3 448.84 286.94 450.55 287.65C450.55 287.65 450.56 287.67 450.59 287.7C450.6 287.68 450.61 287.67 450.61 287.67C450.78 287.74 450.88 287.78 450.88 287.78C450.88 287.78 450.92 287.57 450.97 287.21C451 287.17 451.03 287.13 451.06 287.08C451.07 287.14 451.07 287.19 451.08 287.24C450.95 287.58 450.88 287.78 450.88 287.78C450.88 287.78 450.98 287.8 451.16 287.84C451.16 287.84 451.16 287.85 451.17 287.87C451.2 287.86 451.22 287.85 451.23 287.85C453.02 288.22 461.58 289.63 468.89 285.36C477.1 280.56 480.61 270.39 480.61 270.39C476.31 269.52 471.88 269.63 467.63 270.72Z" id="bahBjUtYF"></path><path d="M464.69 228.27C460.86 228.27 457.77 231.62 457.77 235.74C457.77 239.87 460.86 243.21 464.69 243.21C468.51 243.21 471.6 239.87 471.6 235.74C471.6 231.62 468.51 228.27 464.69 228.27Z" id="b2H6z3uuNx"></path><path d="M551.55 332.73C551.55 332.73 551.55 332.73 551.55 332.73C550.79 335.66 550.36 337.29 550.28 337.61C550.28 337.61 550.28 337.61 550.28 337.61C425.53 299.52 356.22 278.36 342.36 274.13C342.36 274.13 342.36 274.13 342.36 274.13C343.13 271.2 343.56 269.57 343.64 269.25C343.64 269.25 343.64 269.25 343.64 269.25C468.39 307.34 537.69 328.5 551.55 332.73Z" id="c3JdHw5aXu"></path><path d="M392.58 310.46C392.58 310.46 392.58 310.46 392.58 310.46C386.49 333.69 383.11 346.59 382.44 349.17C382.44 349.17 382.44 349.17 382.44 349.17C360.93 342.6 348.98 338.95 346.59 338.22C346.59 338.22 346.59 338.22 346.59 338.22C352.67 315 356.05 302.1 356.73 299.52C356.73 299.52 356.73 299.52 356.73 299.52C378.24 306.08 390.19 309.73 392.58 310.46Z" id="dgT9dXBse"></path><path d="M459.15 330.79C459.15 330.79 459.15 330.79 459.15 330.79C453.07 354.01 449.69 366.92 449.01 369.5C449.01 369.5 449.01 369.5 449.01 369.5C427.5 362.93 415.55 359.28 413.16 358.55C413.16 358.55 413.16 358.55 413.16 358.55C419.25 335.33 422.63 322.42 423.3 319.84C423.3 319.84 423.3 319.84 423.3 319.84C444.81 326.41 456.76 330.06 459.15 330.79Z" id="a49JNXXDX"></path><path d="M525.72 351.12C525.72 351.12 525.72 351.12 525.72 351.12C519.64 374.34 516.26 387.24 515.59 389.82C515.59 389.82 515.59 389.82 515.59 389.82C494.08 383.26 482.13 379.61 479.74 378.88C479.74 378.88 479.74 378.88 479.74 378.88C485.82 355.65 489.2 342.75 489.88 340.17C489.88 340.17 489.88 340.17 489.88 340.17C511.38 346.74 523.33 350.39 525.72 351.12Z" id="fumYYZlRN"></path><path d="M375.8 355.5C375.8 355.5 375.8 355.5 375.8 355.5C375.28 357.49 374.99 358.6 374.93 358.82C374.93 358.82 374.93 358.82 374.93 358.82C358.96 353.94 350.08 351.23 348.3 350.69C348.3 350.69 348.3 350.69 348.3 350.69C348.83 348.7 349.12 347.59 349.17 347.37C349.17 347.37 349.17 347.37 349.17 347.37C365.15 352.25 374.03 354.96 375.8 355.5Z" id="g2TnI9JKuu"></path><path d="M442.38 375.83C442.38 375.83 442.38 375.83 442.38 375.83C441.85 377.82 441.56 378.93 441.51 379.15C441.51 379.15 441.51 379.15 441.51 379.15C425.53 374.27 416.65 371.56 414.88 371.02C414.88 371.02 414.88 371.02 414.88 371.02C415.4 369.03 415.69 367.92 415.75 367.7C415.75 367.7 415.75 367.7 415.75 367.7C431.72 372.58 440.6 375.29 442.38 375.83Z" id="b1LuNlkwr"></path><path d="M508.95 396.16C508.95 396.16 508.95 396.16 508.95 396.16C508.43 398.15 508.14 399.25 508.08 399.47C508.08 399.47 508.08 399.47 508.08 399.47C492.1 394.6 483.23 391.89 481.45 391.34C481.45 391.34 481.45 391.34 481.45 391.34C481.97 389.35 482.26 388.25 482.32 388.03C482.32 388.03 482.32 388.03 482.32 388.03C498.3 392.9 507.17 395.61 508.95 396.16Z" id="aLXdO8rjY"></path><path d="M184.2 406.51L195.9 405.54L195.9 391.41L185.66 389.94L185.66 389.94L184.2 406.51Z" id="bl9q0TFLa"></path><path d="M176.4 406.51L164.69 405.54L164.69 391.41L174.93 389.94L174.93 389.94L176.4 406.51Z" id="aE2d5Wjpl"></path><path d="M209.56 289.57C209.56 289.57 208.1 314.91 205.66 319.29C205.66 319.29 202.73 325.63 203.71 327.58C203.71 327.58 204.19 329.04 203.71 330.5C203.71 330.5 202.24 331.48 203.71 333.42C204.93 335.18 204.93 337.51 203.71 339.27C202.73 340.73 205.66 380.2 201.76 383.12C197.85 386.05 196.88 395.79 196.88 395.79C196.03 395.69 191.81 395.21 184.2 394.33C184.2 387.9 184.2 384.33 184.2 383.61C184.2 383.61 181.27 375.81 183.22 370.94C183.22 370.94 186.15 340.25 186.15 340.25C186.15 340.25 185.66 337.81 186.15 336.35C186.15 336.35 186.15 333.91 185.18 333.42C185.18 333.42 183.71 330.99 183.71 330.99C183.61 328.62 183.13 316.76 182.25 295.42C178.74 316.47 176.79 328.16 176.4 330.5C176.4 330.5 182.25 378.25 176.4 384.59C176.4 385.33 176.4 389.07 176.4 395.79L163.72 395.79C164.89 388.48 165.54 384.42 165.67 383.61C165.67 383.61 161.77 372.4 163.72 369.97C163.72 369.97 157.87 328.55 158.84 327.09C158.84 327.09 159.33 325.14 158.84 324.17C158.84 324.17 156.89 322.22 157.38 321.24C157.38 321.24 157.38 318.32 157.38 318.32C157.38 318.32 148.11 272.52 152.5 268.13C156.89 263.75 205.66 262.77 205.66 262.77C206.44 268.13 209.56 286.16 209.56 289.57Z" id="a11FbFuj8Z"></path><path d="M187.13 400.18C187.13 400.18 188.1 395.5 195.9 397.11C195.9 397.11 197.85 401.15 197.85 403.1C197.85 405.05 199.81 418.21 199.81 418.21C199.81 418.21 207.61 431.36 197.85 431.36C188.1 431.36 184.69 427.95 184.2 424.54C183.71 421.13 184.69 420.15 182.74 418.69C180.79 417.23 179.81 417.23 180.3 415.28C180.79 413.33 181.76 403.59 181.76 403.59C181.76 403.59 182.25 396.28 184.93 398.23C185.11 398.36 186 399.01 187.61 400.18" id="b6Tfuy5giT"></path><path d="M173.47 400.18C173.47 400.18 172.5 395.5 164.69 397.11C164.69 397.11 162.74 401.15 162.74 403.1C162.74 405.05 160.79 418.21 160.79 418.21C160.79 418.21 152.99 431.36 162.74 431.36C172.5 431.36 175.91 427.95 176.4 424.54C176.88 421.13 175.91 420.15 177.86 418.69C179.81 417.23 180.79 417.23 180.3 415.28C179.81 413.33 178.84 403.59 178.84 403.59C178.84 403.59 178.35 396.28 175.67 398.23C175.49 398.36 174.59 399.01 172.98 400.18" id="h1IwzRTBEk"></path><path d="M187.61 146.81C180.34 146.81 174.45 152.7 174.45 159.96C174.45 167.23 180.34 173.12 187.61 173.12C194.89 173.12 200.78 167.23 200.78 159.96C200.78 152.7 194.89 146.81 187.61 146.81Z" id="e1NhBA8XJd"></path><path d="M176.88 161.91C176.88 161.91 171.52 182.87 170.55 183.35C170.55 183.35 192.98 185.79 192.98 185.79C192.98 185.79 187.13 167.76 192.98 164.84C189.76 164.25 180.1 162.5 176.88 161.91Z" id="b1jEOidYvF"></path><path d="M173.46 174.68L157.38 185.79C159.13 238.12 160.11 267.19 160.3 273.01C160.3 273.01 181.76 270.57 186.64 271.06C186.64 271.06 207.12 266.67 207.12 266.67C206.44 258.48 200.97 192.91 200.29 184.72C200.01 181.41 197.36 178.8 194.04 178.56C193.75 178.54 191.41 178.38 191.12 178.36C191.12 178.36 188.19 185.59 179.39 181.86C176.38 180.55 174.17 177.88 173.46 174.68C173.46 174.68 173.46 174.68 173.46 174.68Z" id="bhUqYlo18"></path><path d="M153.96 183.35C151.62 216.97 150.32 235.65 150.06 239.39C150.06 239.39 142.26 273.01 148.6 282.75C148.6 282.75 165.67 293.47 165.67 293.47C165.67 293.47 179.81 237.44 175.91 218.43C172.01 199.43 173.85 173.89 173.85 173.89C171.2 175.15 164.57 178.3 153.96 183.35Z" id="b1X8162wqa"></path><path d="M136.41 258.39C136.41 262.77 136.41 265.21 136.41 265.7C136.41 265.7 133.48 281.78 142.75 281.29C142.75 281.29 147.62 263.75 147.62 263.75C147.43 263.39 146.45 261.6 144.7 258.39L136.41 258.39Z" id="giJznWZij"></path><path d="M222.24 273.01C221.65 277.98 221.33 280.74 221.26 281.29C221.26 281.29 226.14 297.86 216.87 298.34C216.87 298.34 214.33 281.39 214.33 281.39C214.54 280.77 215.55 277.65 217.36 272.03L222.24 273.01Z" id="mi28bZYlW"></path><path d="M190.82 176.65C199.71 178.84 207.94 183.12 214.84 189.13C214.84 189.13 214.87 189.16 214.92 189.2L208.1 225.26C207.51 233.15 207.19 237.53 207.12 238.41C207.12 238.41 225.16 302.73 204.19 293.47C204.19 293.47 186.15 237.44 188.59 211.61C191.03 185.79 190.82 176.65 190.82 176.65C190.82 176.65 190.82 176.65 190.82 176.65Z" id="b2RL8oitGf"></path><path d="M208.58 188.71C209.07 188.23 214.92 189.39 214.92 189.39C214.92 189.39 225.65 227.2 225.65 233.54C225.65 239.87 227.12 275.93 227.12 275.93C226.26 276.02 221.97 276.45 214.24 277.23L203.82 227.13C206.36 206.64 207.95 193.83 208.58 188.71Z" id="g1f6fXSR2h"></path><path d="M157.38 183.35C155.33 183.35 154.19 183.35 153.96 183.35C153.96 183.35 144.21 187.25 143.72 191.64C143.72 191.64 130.07 240.36 130.07 240.36C130.3 241.85 131.43 249.33 133.48 262.77L146.16 260.82L148.6 235.98L161.28 208.69L157.38 183.35Z" id="auuKNtPYq"></path><path d="M185.56 160.12C185.68 159.3 186.16 158.22 186.96 158.45C187.64 158.64 189.11 159.22 189.36 159.04C190.29 158.38 191.69 159.53 192.67 158.95C193.08 158.7 193.34 158.18 193.82 158.15C194.14 158.17 194.44 158.3 194.66 158.53C195.29 159.08 196.04 159.48 196.85 159.71C197.67 159.94 198.55 159.7 199.15 159.09C199.25 158.93 199.39 158.8 199.55 158.7C199.75 158.64 199.95 158.65 200.14 158.73C200.39 158.79 202.38 159.34 202.63 159.4C203.37 156.72 202.9 153.84 201.35 151.53C200.34 150.16 199.11 148.96 197.72 147.98C195.41 146.22 193.42 145 192.94 144.67C191.2 143.44 189.23 142.58 187.14 142.15C185.04 141.83 182.69 142.4 181.37 144.06C180.74 143.61 180.28 142.98 180.03 142.26C179.47 142.76 179.43 143.63 179.94 144.19C179.99 144.25 180.05 144.3 180.12 144.35C179.91 144.22 178.22 143.14 178.01 143.01C177.42 143.63 178.57 144.76 178.07 145.45C177.92 145.62 177.72 145.75 177.5 145.82C176.36 146.27 175.31 146.93 174.41 147.76C173.28 149.06 172.45 150.59 171.98 152.24C170.72 155.84 169.81 159.97 171.6 163.34C171.8 163.72 174.47 170.02 174.82 170.27C176.02 171.1 175.24 169.09 176.1 170.27C176.78 171.19 176.65 167.65 177.66 168.43C178.46 169 179.53 169.05 180.38 168.55C180.8 168.26 180.66 166.66 180.44 165.19C180.29 164.24 180.94 163.36 181.89 163.21C182.11 163.18 182.33 163.19 182.55 163.24C183.8 163.53 185.03 163.79 185.06 163.64C185.16 162.93 185.51 160.47 185.56 160.12Z" id="f1qirnevzt"></path><path d="M215.17 277.15L211.75 277.15L209.8 232.81L209.8 232.81L215.17 277.15Z" id="bkK7DVdvp"></path><path d="M150.52 232.81L155.67 215.75L154.21 215.75L153.23 215.75L153.23 215.75L150.52 232.81Z" id="aIaidh9W7"></path></defs><g><g><g><use xlink:href="#a1ky1EpMps" opacity="1" fill="#3f3d56" fill-opacity="1"></use><g><use xlink:href="#a1ky1EpMps" opacity="1" fill-opacity="0" stroke="#000000" stroke-width="1" stroke-opacity="0"></use></g></g><g><use xlink:href="#b3akRLb9Zb" opacity="1" fill="#6c63ff" fill-opacity="1"></use><g><use xlink:href="#b3akRLb9Zb" opacity="1" fill-opacity="0" stroke="#000000" stroke-width="1" stroke-opacity="0"></use></g></g><g><use xlink:href="#a2CnSksWYI" opacity="1" fill="#6c63ff" fill-opacity="1"></use><g><use xlink:href="#a2CnSksWYI" opacity="1" fill-opacity="0" stroke="#000000" stroke-width="1" stroke-opacity="0"></use></g></g><g><use xlink:href="#c21CWJOtVY" opacity="1" fill="#6c63ff" fill-opacity="1"></use><g><use xlink:href="#c21CWJOtVY" opacity="1" fill-opacity="0" stroke="#000000" stroke-width="1" stroke-opacity="0"></use></g></g><g><use xlink:href="#bahBjUtYF" opacity="1" fill="#6c63ff" fill-opacity="1"></use><g><use xlink:href="#bahBjUtYF" opacity="1" fill-opacity="0" stroke="#000000" stroke-width="1" stroke-opacity="0"></use></g></g><g><use xlink:href="#b2H6z3uuNx" opacity="1" fill="#6c63ff" fill-opacity="1"></use><g><use xlink:href="#b2H6z3uuNx" opacity="1" fill-opacity="0" stroke="#000000" stroke-width="1" stroke-opacity="0"></use></g></g><g><use xlink:href="#c3JdHw5aXu" opacity="1" fill="#6c63ff" fill-opacity="1"></use><g><use xlink:href="#c3JdHw5aXu" opacity="1" fill-opacity="0" stroke="#000000" stroke-width="1" stroke-opacity="0"></use></g></g><g><use xlink:href="#dgT9dXBse" opacity="1" fill="#6c63ff" fill-opacity="1"></use><g><use xlink:href="#dgT9dXBse" opacity="1" fill-opacity="0" stroke="#000000" stroke-width="1" stroke-opacity="0"></use></g></g><g><use xlink:href="#a49JNXXDX" opacity="1" fill="#6c63ff" fill-opacity="1"></use><g><use xlink:href="#a49JNXXDX" opacity="1" fill-opacity="0" stroke="#000000" stroke-width="1" stroke-opacity="0"></use></g></g><g><use xlink:href="#fumYYZlRN" opacity="1" fill="#6c63ff" fill-opacity="1"></use><g><use xlink:href="#fumYYZlRN" opacity="1" fill-opacity="0" stroke="#000000" stroke-width="1" stroke-opacity="0"></use></g></g><g><use xlink:href="#g2TnI9JKuu" opacity="1" fill="#6c63ff" fill-opacity="1"></use><g><use xlink:href="#g2TnI9JKuu" opacity="1" fill-opacity="0" stroke="#000000" stroke-width="1" stroke-opacity="0"></use></g></g><g><use xlink:href="#b1LuNlkwr" opacity="1" fill="#6c63ff" fill-opacity="1"></use><g><use xlink:href="#b1LuNlkwr" opacity="1" fill-opacity="0" stroke="#000000" stroke-width="1" stroke-opacity="0"></use></g></g><g><use xlink:href="#aLXdO8rjY" opacity="1" fill="#6c63ff" fill-opacity="1"></use><g><use xlink:href="#aLXdO8rjY" opacity="1" fill-opacity="0" stroke="#000000" stroke-width="1" stroke-opacity="0"></use></g></g><g><use xlink:href="#bl9q0TFLa" opacity="1" fill="#ffb8b8" fill-opacity="1"></use><g><use xlink:href="#bl9q0TFLa" opacity="1" fill-opacity="0" stroke="#000000" stroke-width="1" stroke-opacity="0"></use></g></g><g><use xlink:href="#aE2d5Wjpl" opacity="1" fill="#ffb8b8" fill-opacity="1"></use><g><use xlink:href="#aE2d5Wjpl" opacity="1" fill-opacity="0" stroke="#000000" stroke-width="1" stroke-opacity="0"></use></g></g><g><use xlink:href="#a11FbFuj8Z" opacity="1" fill="#2f2e41" fill-opacity="1"></use><g><use xlink:href="#a11FbFuj8Z" opacity="1" fill-opacity="0" stroke="#000000" stroke-width="1" stroke-opacity="0"></use></g></g><g><use xlink:href="#b6Tfuy5giT" opacity="1" fill="#2f2e41" fill-opacity="1"></use><g><use xlink:href="#b6Tfuy5giT" opacity="1" fill-opacity="0" stroke="#000000" stroke-width="1" stroke-opacity="0"></use></g></g><g><use xlink:href="#h1IwzRTBEk" opacity="1" fill="#2f2e41" fill-opacity="1"></use><g><use xlink:href="#h1IwzRTBEk" opacity="1" fill-opacity="0" stroke="#000000" stroke-width="1" stroke-opacity="0"></use></g></g><g><use xlink:href="#e1NhBA8XJd" opacity="1" fill="#ffb8b8" fill-opacity="1"></use><g><use xlink:href="#e1NhBA8XJd" opacity="1" fill-opacity="0" stroke="#000000" stroke-width="1" stroke-opacity="0"></use></g></g><g><use xlink:href="#b1jEOidYvF" opacity="1" fill="#ffb8b8" fill-opacity="1"></use><g><use xlink:href="#b1jEOidYvF" opacity="1" fill-opacity="0" stroke="#000000" stroke-width="1" stroke-opacity="0"></use></g></g><g><use xlink:href="#bhUqYlo18" opacity="1" fill="#d0cde1" fill-opacity="1"></use><g><use xlink:href="#bhUqYlo18" opacity="1" fill-opacity="0" stroke="#000000" stroke-width="1" stroke-opacity="0"></use></g></g><g><use xlink:href="#b1X8162wqa" opacity="1" fill="#575a89" fill-opacity="1"></use><g><use xlink:href="#b1X8162wqa" opacity="1" fill-opacity="0" stroke="#000000" stroke-width="1" stroke-opacity="0"></use></g></g><g><use xlink:href="#giJznWZij" opacity="1" fill="#ffb8b8" fill-opacity="1"></use><g><use xlink:href="#giJznWZij" opacity="1" fill-opacity="0" stroke="#000000" stroke-width="1" stroke-opacity="0"></use></g></g><g><use xlink:href="#mi28bZYlW" opacity="1" fill="#ffb8b8" fill-opacity="1"></use><g><use xlink:href="#mi28bZYlW" opacity="1" fill-opacity="0" stroke="#000000" stroke-width="1" stroke-opacity="0"></use></g></g><g><use xlink:href="#b2RL8oitGf" opacity="1" fill="#575a89" fill-opacity="1"></use><g><use xlink:href="#b2RL8oitGf" opacity="1" fill-opacity="0" stroke="#000000" stroke-width="1" stroke-opacity="0"></use></g></g><g><use xlink:href="#g1f6fXSR2h" opacity="1" fill="#575a89" fill-opacity="1"></use><g><use xlink:href="#g1f6fXSR2h" opacity="1" fill-opacity="0" stroke="#000000" stroke-width="1" stroke-opacity="0"></use></g></g><g><use xlink:href="#auuKNtPYq" opacity="1" fill="#575a89" fill-opacity="1"></use><g><use xlink:href="#auuKNtPYq" opacity="1" fill-opacity="0" stroke="#000000" stroke-width="1" stroke-opacity="0"></use></g></g><g><use xlink:href="#f1qirnevzt" opacity="1" fill="#2f2e41" fill-opacity="1"></use><g><use xlink:href="#f1qirnevzt" opacity="1" fill-opacity="0" stroke="#000000" stroke-width="1" stroke-opacity="0"></use></g></g><g><use xlink:href="#bkK7DVdvp" opacity="1" fill="#000000" fill-opacity="1"></use><g><use xlink:href="#bkK7DVdvp" opacity="1" fill-opacity="0" stroke="#000000" stroke-width="1" stroke-opacity="0"></use></g></g><g><use xlink:href="#aIaidh9W7" opacity="1" fill="#000000" fill-opacity="1"></use><g><use xlink:href="#aIaidh9W7" opacity="1" fill-opacity="0" stroke="#000000" stroke-width="1" stroke-opacity="0"></use></g></g></g></g></svg>